# xmcd
#
# Track frame offsets:
#	150
#	11933
#	26056
#	36871
#	50709
#	64239
#	74289
#	87219
#	101387
#	113095
#
# Disc length: 1689 seconds
#
# Revision: 1
# Processed by: cddbd v1.5.2PL0 Copyright (c) Steve Scherf et al.
# Submitted via: audiograbber 1.83.01
#
DISCID=8606970a
DTITLE=The Kendalls - Stickin' Together
DYEAR=1982
DGENRE=Country
TTITLE0=Cheater's Prayer
TTITLE1=That's Waht I Get For Thinking
TTITLE2=Sweet Temptation
TTITLE3=Looks Like Rain Today
TTITLE4=Back In The Back Of My Mind
TTITLE5=Take Me To Heaven (Before You Take Me Home)
TTITLE6=A Dallas Cowboy And A New Orleans Saint
TTITLE7=Everyday People
TTITLE8=Honey Dew
TTITLE9=I'll Take Your Love Anytime
EXTD=
EXTT0=
EXTT1=
EXTT2=
EXTT3=
EXTT4=
EXTT5=
EXTT6=
EXTT7=
EXTT8=
EXTT9=
PLAYORDER=
